<?xml version="1.0" standalone="no"?>
<!DOCTYPE svg PUBLIC "-//W3C//DTD SVG 20010904//EN"
 "http://www.w3.org/TR/2001/REC-SVG-20010904/DTD/svg10.dtd">
<svg version="1.0" xmlns="http://www.w3.org/2000/svg"
 width="1536.000000pt" height="1536.000000pt" viewBox="0 0 1536.000000 1536.000000"
 preserveAspectRatio="xMidYMid meet">
<metadata>
Created by potrace 1.11, written by Peter Selinger 2001-2013
</metadata>
<g transform="translate(0.000000,1536.000000) scale(0.100000,-0.100000)"
fill="#000000" stroke="none">
<path d="M5343 13056 l-2303 -2303 739 -739 c406 -406 752 -752 769 -767 l30
-29 1535 1535 1535 1535 1536 -1536 1536 -1536 747 747 c412 411 753 751 759
755 6 4 13 15 17 24 5 14 -523 547 -2277 2300 -1256 1256 -2292 2290 -2302
2300 -18 15 -118 -83 -2321 -2286z"/>
<path d="M7634 10737 c-6 -7 -24 -24 -40 -39 -16 -15 -34 -33 -40 -40 -6 -7
-40 -41 -75 -75 -35 -33 -71 -69 -80 -80 -9 -10 -65 -66 -125 -125 -60 -59
-144 -142 -186 -185 -42 -43 -85 -85 -95 -94 -10 -9 -64 -63 -121 -120 -56
-57 -108 -109 -115 -115 -6 -6 -42 -42 -79 -80 -36 -38 -75 -76 -85 -85 -10
-9 -28 -27 -40 -40 -11 -13 -38 -40 -60 -60 -21 -20 -45 -45 -54 -55 -9 -11
-65 -67 -125 -127 -60 -59 -114 -113 -120 -120 -6 -6 -42 -42 -80 -79 -38 -37
-74 -73 -80 -80 -6 -7 -24 -25 -40 -40 -16 -15 -34 -33 -40 -40 -6 -7 -42 -43
-80 -80 -38 -37 -74 -73 -80 -80 -6 -7 -60 -61 -120 -121 -60 -59 -114 -113
-120 -120 -6 -6 -42 -42 -80 -79 -38 -37 -74 -73 -80 -80 -6 -7 -24 -25 -40
-40 -16 -15 -34 -33 -40 -40 -6 -7 -60 -61 -120 -121 -60 -59 -114 -113 -120
-120 -6 -6 -24 -24 -40 -39 -16 -15 -34 -33 -40 -40 -6 -7 -42 -43 -80 -80
-38 -37 -74 -73 -80 -80 -6 -7 -58 -59 -115 -115 -57 -56 -112 -111 -122 -123
l-19 -22 1535 -1535 1535 -1535 1531 1531 c842 842 1531 1535 1531 1541 0 8
-3055 3071 -3062 3070 -2 -1 -8 -6 -14 -13z"/>
<path d="M3805 5376 c-417 -419 -758 -765 -757 -769 0 -5 1036 -1043 2300
-2307 l2300 -2300 2301 2301 c1266 1266 2301 2305 2301 2308 0 4 -63 69 -140
146 -77 76 -140 142 -140 147 0 4 -3 8 -8 8 -9 0 -945 935 -950 950 -2 5 -7
10 -11 10 -4 0 -69 62 -144 138 l-137 137 -141 -140 c-77 -77 -151 -151 -162
-164 -12 -13 -30 -31 -41 -40 -10 -9 -35 -33 -55 -54 -20 -20 -83 -83 -140
-140 -57 -56 -111 -110 -120 -120 -9 -11 -45 -47 -80 -80 -35 -34 -71 -71 -80
-81 -9 -10 -27 -28 -40 -40 -13 -12 -31 -29 -40 -39 -9 -10 -71 -73 -139 -140
-67 -67 -169 -169 -225 -226 -56 -57 -110 -111 -120 -120 -11 -9 -47 -45 -80
-80 -34 -35 -71 -71 -81 -80 -10 -9 -28 -27 -40 -40 -12 -13 -29 -31 -39 -40
-24 -20 -77 -73 -98 -98 -9 -10 -63 -64 -120 -120 -57 -56 -111 -110 -120
-120 -9 -10 -45 -46 -80 -80 -35 -33 -71 -69 -80 -80 -9 -10 -27 -27 -40 -39
-13 -12 -31 -30 -40 -40 -9 -10 -45 -47 -80 -81 -35 -33 -71 -69 -80 -80 -9
-10 -63 -64 -120 -120 -57 -56 -111 -110 -120 -120 -9 -10 -63 -64 -120 -120
-57 -56 -158 -156 -223 -223 -66 -66 -123 -120 -128 -120 -4 0 -696 688 -1538
1530 -842 842 -1533 1529 -1538 1529 -4 -1 -349 -344 -767 -763z"/>
</g>
</svg>
